<svg xmlns="http://www.w3.org/2000/svg" width="204.304" height="73.245"><defs><linearGradient id="a" x1=".12" y1=".345" x2="1" y2=".563" gradientUnits="objectBoundingBox"><stop offset="0" stop-color="#e7a649"/><stop offset="1" stop-color="#b9476d"/></linearGradient></defs><g data-name="Component 5 – 5"><path data-name="Union 10" d="M167.871 73.24h-.005l-32.855-32.851-32.854 32.856-32.864-32.856-32.854 32.856h-.005L0 36.816l3.579-3.58 32.855 32.855 32.854-32.854h.005l32.854 32.854 32.854-32.854h.005l32.854 32.854 32.854-32.854 3.579 3.58-36.418 36.428zm0-17.087h-.005L135.011 23.3l-32.854 32.858L69.293 23.3 36.439 56.158h-.005L0 19.731l3.579-3.579 32.855 32.854 32.854-32.854h.005l32.854 32.854 32.854-32.854h.005l32.854 32.854 32.854-32.854 3.579 3.579-36.418 36.427zm0-16.15h-.005L135.011 7.154l-32.854 32.854L69.293 7.154 36.439 40.008h-.005L0 3.58 3.579 0l32.855 32.854L69.288 0h.005l32.854 32.854L135.006 0h.005l32.854 32.854L200.725 0l3.575 3.58-36.425 36.428z" fill="url(#a)" transform="rotate(-180 102.152 36.622)"/></g></svg>