<svg width="30" height="30" viewBox="0 0 48 48" fill="none" xmlns="http://www.w3.org/2000/svg"><path fill-rule="evenodd" clip-rule="evenodd" d="M0 24C0 10.745 10.745 0 24 0s24 10.745 24 24-10.745 24-24 24S0 37.255 0 24zm27.907-9.838c.916-1.183 1.611-2.855 1.36-4.562-1.498.104-3.248 1.062-4.27 2.311-.931 1.132-1.696 2.816-1.397 4.45 1.637.05 3.327-.93 4.307-2.2zM36 30.215c-4.766-1.812-5.53-8.588-.813-11.188-1.438-1.804-3.46-2.85-5.368-2.85-2.521 0-3.587 1.206-5.337 1.206-1.805 0-3.177-1.203-5.356-1.203-2.141 0-4.42 1.309-5.866 3.546-2.031 3.15-1.685 9.073 1.61 14.119 1.177 1.805 2.75 3.834 4.808 3.852 1.831.018 2.348-1.174 4.83-1.188 2.481-.014 2.953 1.203 4.78 1.183 2.06-.016 3.72-2.265 4.897-4.07.844-1.294 1.16-1.947 1.815-3.407z" fill="currentColor"/></svg>