<svg xmlns="http://www.w3.org/2000/svg" width="23.457" height="18.883" viewBox="0 0 20.457 18.883">
  <g id="Icon_ionic-ios-calendar" data-name="Icon ionic-ios-calendar" transform="translate(-3.375 -4.5)">
    <path id="Path_10" data-name="Path 10" d="M21.865,6.75H19.9V7.93a.4.4,0,0,1-.393.393h-.787a.4.4,0,0,1-.393-.393V6.75H8.883V7.93a.4.4,0,0,1-.393.393H7.7a.4.4,0,0,1-.393-.393V6.75H5.342A1.973,1.973,0,0,0,3.375,8.717V22.093A1.973,1.973,0,0,0,5.342,24.06H21.865a1.973,1.973,0,0,0,1.967-1.967V8.717A1.973,1.973,0,0,0,21.865,6.75ZM22.258,21.5a.986.986,0,0,1-.984.984H5.932a.986.986,0,0,1-.984-.984V12.651a.4.4,0,0,1,.393-.393H21.865a.4.4,0,0,1,.393.393Z" transform="translate(0 -0.676)" fill="#394fd3"/>
    <path id="Path_11" data-name="Path 11" d="M10.574,4.893A.4.4,0,0,0,10.18,4.5H9.393A.4.4,0,0,0,9,4.893v1.18h1.574Z" transform="translate(-1.691)" fill="#394fd3"/>
    <path id="Path_12" data-name="Path 12" d="M26.324,4.893A.4.4,0,0,0,25.93,4.5h-.787a.4.4,0,0,0-.393.393v1.18h1.574Z" transform="translate(-6.426)" fill="#394fd3"/>
  </g>
</svg>
