<svg xmlns="http://www.w3.org/2000/svg" width="29.314" height="23.429" viewBox="0 0 29.314 23.429">
  <g id="Group_4" data-name="Group 4" transform="translate(-0.843 -2.871)">
    <path id="Path_74" data-name="Path 74" d="M15.5,17.08,28,10.54,15.5,4,3,10.54Z" transform="translate(0 0)" fill="none" stroke="#355ce8" stroke-width="2"/>
    <path id="Path_75" data-name="Path 75" d="M14.884,15.054l8.7-4.476a14.722,14.722,0,0,1,.939,8.475,17.549,17.549,0,0,0-9.637,3.921,17.549,17.549,0,0,0-9.635-3.921,14.716,14.716,0,0,1,.939-8.475Z" transform="translate(0.616 2.026)" fill="none" stroke="#355ce8" stroke-width="2"/>
    <path id="Path_76" data-name="Path 76" d="M15.5,17.08,28,10.54,15.5,4,3,10.54Zm0,0L24.056,12.6a14.948,14.948,0,0,1,.924,8.475A17.11,17.11,0,0,0,15.5,25a17.11,17.11,0,0,0-9.478-3.921A14.942,14.942,0,0,1,6.946,12.6ZM9.944,24.928v-9.81L15.5,12.212" transform="translate(0 0)" fill="none" stroke="#355ce8" stroke-linecap="round" stroke-linejoin="round" stroke-width="2"/>
  </g>
</svg>
