<svg xmlns="http://www.w3.org/2000/svg" width="24.687" height="27.343" viewBox="0 0 24.687 27.343">
  <path id="Path_73" data-name="Path 73" d="M17.75,12.722,15,14.111m0,0-2.75-1.389M15,14.111v3.472M26,8.556,23.25,9.944M26,8.556,23.25,7.167M26,8.556v3.472M17.75,4.389,15,3,12.25,4.389M4,8.556,6.75,7.167M4,8.556,6.75,9.944M4,8.556v3.472M15,28l-2.75-1.389M15,28l2.75-1.389M15,28V24.528m-8.25-.694L4,22.444V18.972m19.25,4.861L26,22.444V18.972" transform="translate(-2.657 -2)" fill="none" stroke="#355ce8" stroke-linecap="round" stroke-linejoin="round" stroke-width="2"/>
</svg>
