<svg xmlns="http://www.w3.org/2000/svg" xmlns:xlink="http://www.w3.org/1999/xlink" viewBox="0 0 248.144 241.696">
  <defs>
    <linearGradient id="linear-gradient" x1="0.173" y1="0.126" x2="0.809" y2="0.929" gradientUnits="objectBoundingBox">
      <stop offset="0" stop-color="#355ce8"/>
      <stop offset="1" stop-color="#45a9e6"/>
    </linearGradient>
  </defs>
  <path id="Union_13" data-name="Union 13" d="M119.953,241.464a1.447,1.447,0,0,1-.657-1.214v-3.8H71.616A1.445,1.445,0,0,1,70.169,235v-19.21H64.946A33.439,33.439,0,1,1,27.89,171.615V136.331a7.4,7.4,0,0,1,7.393-7.393h47a1.189,1.189,0,0,0,1.187-1.187v-5.4a4.923,4.923,0,0,1,4.914-4.919h25.8a4.923,4.923,0,0,1,4.914,4.919v8.178h8.177a4.918,4.918,0,0,1,4.915,4.914v7.83h7.835a4.923,4.923,0,0,1,4.915,4.919v60.2a7.405,7.405,0,0,1-7.394,7.4H73.058v17.769H119.3v-4.218a1.446,1.446,0,0,1,2.031-1.32l12.214,5.456a1.445,1.445,0,0,1,0,2.64l-12.214,5.449a1.473,1.473,0,0,1-.59.127A1.427,1.427,0,0,1,119.953,241.464Zm2.231-3.44,7.228-3.225-7.228-3.23ZM2.888,204.591A30.554,30.554,0,1,0,33.44,174.033,30.589,30.589,0,0,0,2.888,204.591Zm53.731-42.418v18.343a33.4,33.4,0,0,1,9.216,32.39h71.716a4.511,4.511,0,0,0,4.505-4.511V148.2a2.033,2.033,0,0,0-2.027-2.032h-25.8A2.033,2.033,0,0,0,112.2,148.2v5.395a4.08,4.08,0,0,1-4.075,4.075h-47A4.511,4.511,0,0,0,56.619,162.173ZM43.87,149.429v23.39a33.515,33.515,0,0,1,9.862,5.212V162.173a7.4,7.4,0,0,1,7.394-7.394h47a1.192,1.192,0,0,0,1.187-1.187V148.2a4.923,4.923,0,0,1,4.915-4.919h15.08v-7.83a2.032,2.032,0,0,0-2.027-2.027h-25.8a2.032,2.032,0,0,0-2.027,2.027v5.395a4.08,4.08,0,0,1-4.075,4.075H48.381A4.513,4.513,0,0,0,43.87,149.429Zm-2.888,22.584V149.429a7.407,7.407,0,0,1,7.4-7.4H95.376a1.185,1.185,0,0,0,1.187-1.187v-5.395a4.918,4.918,0,0,1,4.915-4.914h14.737v-8.178a2.027,2.027,0,0,0-2.026-2.026h-25.8a2.028,2.028,0,0,0-2.027,2.026v5.4a4.078,4.078,0,0,1-4.074,4.074h-47a4.51,4.51,0,0,0-4.505,4.505v34.93c.883-.066,1.767-.115,2.661-.115A33.58,33.58,0,0,1,40.982,172.012ZM143.8,236.467a1.5,1.5,0,0,1-.025-.274,1.441,1.441,0,0,1,1.179-1.411c1.861-.347,3.739-.745,5.577-1.187a1.442,1.442,0,1,1,.673,2.805c-1.888.458-3.815.867-5.726,1.22a1.46,1.46,0,0,1-.265.022A1.442,1.442,0,0,1,143.8,236.467Zm18.6-4.909a1.425,1.425,0,0,1-.093-.513,1.45,1.45,0,0,1,.938-1.348,109.3,109.3,0,0,0,12.147-5.416,1.444,1.444,0,0,1,1.331,2.562,112.274,112.274,0,0,1-12.462,5.56,1.538,1.538,0,0,1-.508.094A1.445,1.445,0,0,1,162.4,231.558Zm-131.5-5.324a2.882,2.882,0,0,1-2.877-2.876V220.9a17.368,17.368,0,0,1-1.761-.729l-1.739,1.734a2.872,2.872,0,0,1-4.064,0l-3.892-3.893a2.865,2.865,0,0,1,0-4.064l1.733-1.74a16.5,16.5,0,0,1-.729-1.761H15.118a2.882,2.882,0,0,1-2.876-2.876v-5.505a2.882,2.882,0,0,1,2.876-2.877h2.457a17.576,17.576,0,0,1,.729-1.761l-1.733-1.739a2.866,2.866,0,0,1,0-4.064l3.892-3.893a2.876,2.876,0,0,1,4.064,0l1.739,1.733a16.7,16.7,0,0,1,1.761-.729V186.28a2.878,2.878,0,0,1,2.877-2.871H36.41a2.878,2.878,0,0,1,2.876,2.871v2.457a17.491,17.491,0,0,1,1.761.729l1.74-1.733a2.875,2.875,0,0,1,4.063,0l3.893,3.893a2.866,2.866,0,0,1,0,4.064l-1.739,1.739a16.25,16.25,0,0,1,.734,1.761H52.2a2.877,2.877,0,0,1,2.871,2.877v5.505a2.877,2.877,0,0,1-2.871,2.876H49.739a18.032,18.032,0,0,1-.729,1.761l1.733,1.74a2.865,2.865,0,0,1,0,4.064l-3.893,3.893a2.871,2.871,0,0,1-4.063,0l-1.74-1.734a17.284,17.284,0,0,1-1.761.729v2.457a2.882,2.882,0,0,1-2.876,2.876Zm-3.749-8.845a14.348,14.348,0,0,0,2.214.916,2.2,2.2,0,0,1,1.546,2.1v2.948l5.494-.011L36.4,220.41a2.2,2.2,0,0,1,1.546-2.1,14.349,14.349,0,0,0,2.214-.916,2.2,2.2,0,0,1,2.585.392l2.087,2.088,3.871-3.9-2.088-2.065a2.2,2.2,0,0,1-.386-2.585,13.811,13.811,0,0,0,.911-2.214,2.214,2.214,0,0,1,2.1-1.546H52.18v-5.494l-2.938.012a2.207,2.207,0,0,1-2.1-1.546,13.749,13.749,0,0,0-.916-2.214,2.229,2.229,0,0,1-.252-1.015,2.194,2.194,0,0,1,.644-1.563l2.088-2.093-3.893-3.87-2.07,2.087a2.191,2.191,0,0,1-2.578.386,13.854,13.854,0,0,0-2.215-.911,2.206,2.206,0,0,1-1.545-2.1V186.28l-5.495.017.011,2.937a2.213,2.213,0,0,1-1.546,2.1,13.845,13.845,0,0,0-2.214.911,2.21,2.21,0,0,1-2.584-.386l-2.087-2.087-3.876,3.893,2.087,2.066a2.185,2.185,0,0,1,.645,1.566,2.246,2.246,0,0,1-.253,1.018,14.578,14.578,0,0,0-.917,2.214,2.2,2.2,0,0,1-2.1,1.546H15.118l.012,5.494,2.937-.011a2.2,2.2,0,0,1,2.1,1.546,14.476,14.476,0,0,0,.916,2.214,2.251,2.251,0,0,1,.253,1.02,2.173,2.173,0,0,1-.644,1.565l-2.087,2.087,3.9,3.876,2.066-2.088a2.2,2.2,0,0,1,2.584-.392Zm159.262,2.043a1.444,1.444,0,0,1,.37-2.01,109.43,109.43,0,0,0,10.485-8.183,1.444,1.444,0,1,1,1.911,2.164,112.869,112.869,0,0,1-10.756,8.4,1.456,1.456,0,0,1-.817.254A1.44,1.44,0,0,1,186.418,219.433Zm-162-14.611a9.24,9.24,0,1,1,9.238,9.238A9.252,9.252,0,0,1,24.417,204.822Zm2.888,0a6.353,6.353,0,1,0,6.35-6.355A6.358,6.358,0,0,0,27.305,204.822Zm179.515-2.944a1.441,1.441,0,0,1-.122-2.038c1.253-1.408,2.49-2.876,3.677-4.361a1.443,1.443,0,0,1,2.253,1.805c-1.215,1.524-2.485,3.026-3.771,4.478a1.45,1.45,0,0,1-1.083.48A1.42,1.42,0,0,1,206.82,201.878ZM198.2,185.546H165.032a4.3,4.3,0,0,1-4.29-4.29V149.4a1.4,1.4,0,0,1-.111-.542V115.537a4.312,4.312,0,0,1,4.307-4.307h33.334a1.447,1.447,0,0,1,1.441,1.447v12.081h1.132a6.016,6.016,0,0,1,0,12.032h-1.132v9.856h9.868V145.53a5.994,5.994,0,0,1,11.987,0v1.115h9.166a4.291,4.291,0,0,1,4.291,4.29v30.32a4.3,4.3,0,0,1-4.291,4.29Zm1.446-2.888h31.092a1.4,1.4,0,0,0,1.4-1.4v-30.32a1.4,1.4,0,0,0-1.4-1.4H220.122a1.447,1.447,0,0,1-1.442-1.447V145.53a3.1,3.1,0,0,0-6.206,0v2.556a1.452,1.452,0,0,1-1.446,1.447H199.642v10.546h1.115a5.873,5.873,0,0,1,1.773.271,6,6,0,0,1-1.689,11.733h-1.2Zm-34.609,0h31.721V170.643a1.461,1.461,0,0,1,1.442-1.463h2.561a3.106,3.106,0,0,0,0-6.212H198.2a1.443,1.443,0,0,1-1.442-1.442V150.317H184.745a1.445,1.445,0,0,1-1.447-1.446v-.735c0-.016-.005-.032-.005-.049v-2.545a3.079,3.079,0,0,0-3.075-3.037,3.182,3.182,0,0,0-2.606,1.319,3.014,3.014,0,0,0-.525,1.706v2.556a1.583,1.583,0,0,1-.039.332v.453a1.448,1.448,0,0,1-1.446,1.446H163.63v30.938h0A1.405,1.405,0,0,0,165.032,182.658Zm21.154-37.073v1.844h10.64V135.348a1.445,1.445,0,0,1,1.446-1.447h2.574a3.128,3.128,0,0,0,0-6.256h-2.574a1.443,1.443,0,0,1-1.446-1.441V114.117H164.939a1.422,1.422,0,0,0-1.419,1.419v31.892h10.64v-1.844a6.014,6.014,0,0,1,12.027,0ZM15.747,154.04c-.458-1.883-.878-3.8-1.243-5.715a1.42,1.42,0,0,1-.025-.274,1.442,1.442,0,0,1,2.858-.267c.358,1.86.768,3.732,1.215,5.566a1.47,1.47,0,0,1,.043.345,1.447,1.447,0,0,1-1.1,1.406,1.406,1.406,0,0,1-.343.039A1.438,1.438,0,0,1,15.747,154.04Zm-1.49-17.206a1.441,1.441,0,0,1-1.436-1.336c-.2-2.755-.3-5.555-.3-8.321,0-1.53.028-3.065.088-4.578a1.469,1.469,0,0,1,1.5-1.385,1.447,1.447,0,0,1,1.387,1.445c0,.019,0,.037,0,.056-.061,1.474-.088,2.971-.088,4.462,0,2.7.1,5.427.293,8.111,0,.037,0,.075,0,.111a1.444,1.444,0,0,1-1.336,1.436Zm219.332-1.546a1.443,1.443,0,0,1-1.441-1.446v-2.584a3.1,3.1,0,0,0-6.206,0v2.584a1.448,1.448,0,0,1-1.447,1.446H210.983a1.445,1.445,0,0,1-1.447-1.446V120.313a1.444,1.444,0,0,1,1.447-1.442h2.755a3.128,3.128,0,0,0,0-6.256h-2.755a1.444,1.444,0,0,1-1.447-1.446V97.646a1.445,1.445,0,0,1,1.447-1.447H242.7a5.453,5.453,0,0,1,5.444,5.45v30.032a3.605,3.605,0,0,1-3.6,3.605Zm1.446-4.03V132.4h9.508a.724.724,0,0,0,.718-.718V101.65a2.567,2.567,0,0,0-2.562-2.562H212.424v10.64h1.314a6.016,6.016,0,0,1,0,12.032h-1.314V132.4h10.629v-1.143a5.991,5.991,0,0,1,11.982,0ZM15.063,111.412A1.44,1.44,0,0,1,13.841,110a1.539,1.539,0,0,1,.019-.239,112.481,112.481,0,0,1,2.711-12.606,1.444,1.444,0,1,1,2.783.773,110.5,110.5,0,0,0-2.645,12.281,1.442,1.442,0,0,1-1.425,1.22A1.517,1.517,0,0,1,15.063,111.412ZM134.127,99.4a7.583,7.583,0,0,1-4.313-2.921L91.649,91.623a18.318,18.318,0,0,1-5.544,4.8,20.3,20.3,0,0,1-9.956,2.64A18.965,18.965,0,0,1,57.084,80.154,19.384,19.384,0,0,1,71.036,61.481l2.987-32.3a11.206,11.206,0,0,1-1.2-.243,13.739,13.739,0,0,1-10.4-13.278A14.137,14.137,0,0,1,80.015,1.968a13.7,13.7,0,0,1,8.52,6.388,12.912,12.912,0,0,1,.839,1.74l49.921-2.22c0-.043,0-.087,0-.131a7.468,7.468,0,0,1,.261-1.957A7.826,7.826,0,0,1,149.019.239a7.615,7.615,0,0,1,5.757,7.38,7.8,7.8,0,0,1-2.821,5.982L162.5,39.576a7.867,7.867,0,0,1,2.374.227,7.606,7.606,0,0,1,5.761,7.357,7.745,7.745,0,0,1-8.876,7.734l-20.126,31.6a7.6,7.6,0,0,1,2.227,5.34,7.843,7.843,0,0,1-7.809,7.813A7.864,7.864,0,0,1,134.127,99.4Zm-.442-11.6a4.893,4.893,0,0,0-2.431,4.215,4.734,4.734,0,0,0,3.585,4.587,4.91,4.91,0,0,0,6.128-4.726,4.8,4.8,0,0,0-4.8-4.761A4.887,4.887,0,0,0,133.685,87.8ZM68.2,65.821a16.57,16.57,0,0,0-8.228,14.305,16,16,0,0,0,2.2,8.1c4.533,7.73,14.422,10.232,22.517,5.687a15.876,15.876,0,0,0,7.477-9.718,17.119,17.119,0,0,0,.638-4.608A16.346,16.346,0,0,0,90.677,71.5a15.665,15.665,0,0,0-9.657-7.421,16.394,16.394,0,0,0-4.29-.563h0A16.878,16.878,0,0,0,68.2,65.821Zm26.636,8.105a19.348,19.348,0,0,1,.854,5.718,19.749,19.749,0,0,1-2.334,9.284L128.5,93.4a7.624,7.624,0,0,1-.127-1.368,7.738,7.738,0,0,1,1.96-5.164l-16.1-19.74Zm22.3-7.813L132.62,85.1a7.74,7.74,0,0,1,5.472-.629,7.362,7.362,0,0,1,1.148.4l19.706-30.937a7.509,7.509,0,0,1-2.054-1.745ZM81.77,61.282a18.528,18.528,0,0,1,11.419,8.8c.215.375.4.768.585,1.159l18.519-6.487L82.328,28a14.049,14.049,0,0,1-5.423,1.353L74,60.818a19.688,19.688,0,0,1,2.751-.194A19.433,19.433,0,0,1,81.77,61.282ZM84.818,26.49l30.375,37.244,40.3-14.119a7.575,7.575,0,0,1-.353-2.3,7.691,7.691,0,0,1,.1-1.231L89.4,20.488A14.047,14.047,0,0,1,84.818,26.49Zm75.648,16.642a4.88,4.88,0,0,0-2.434,4.2,4.734,4.734,0,0,0,3.588,4.606,4.925,4.925,0,0,0,6.124-4.749,4.723,4.723,0,0,0-3.585-4.583,4.98,4.98,0,0,0-1.2-.155A4.889,4.889,0,0,0,160.465,43.132ZM90.2,12.95a13.928,13.928,0,0,1,.207,2.385A13.651,13.651,0,0,1,90.2,17.7l66.051,25.67a7.813,7.813,0,0,1,2.76-2.739c.215-.122.436-.238.662-.342L149.405,15a7.66,7.66,0,0,1-9.072-3.369,7.745,7.745,0,0,1-.437-.889ZM70.87,5.977a11.19,11.19,0,0,0-5.556,9.653,10.86,10.86,0,0,0,8.222,10.512A11.248,11.248,0,0,0,87.528,15.278a10.844,10.844,0,0,0-8.22-10.511h0A11.123,11.123,0,0,0,70.87,5.977Zm73.742-2.408a4.911,4.911,0,0,0-2.27,2.965,4.848,4.848,0,0,0-.165,1.231,4.745,4.745,0,0,0,.645,2.407,4.9,4.9,0,0,0,9.068-2.547,4.734,4.734,0,0,0-3.585-4.586,4.98,4.98,0,0,0-1.21-.149A4.878,4.878,0,0,0,144.613,3.569ZM21.518,86.824a1.442,1.442,0,0,1-.8-1.877A112.522,112.522,0,0,1,26.256,73.3a1.444,1.444,0,0,1,2.534,1.386A109.276,109.276,0,0,0,23.4,86.029a1.425,1.425,0,0,1-1.877.795ZM221.789,76.306c-.878-1.673-1.816-3.346-2.788-4.975a1.463,1.463,0,0,1-.2-.736,1.445,1.445,0,0,1,2.686-.743c.995,1.679,1.955,3.4,2.855,5.108a1.435,1.435,0,0,1-.6,1.948,1.412,1.412,0,0,1-.674.167A1.43,1.43,0,0,1,221.789,76.306ZM33.434,64.368a1.441,1.441,0,0,1-.61-1.176,1.42,1.42,0,0,1,.267-.834,112.428,112.428,0,0,1,8.04-10.088A1.445,1.445,0,0,1,43.285,54.2a109.994,109.994,0,0,0-7.835,9.828,1.443,1.443,0,0,1-1.182.607A1.424,1.424,0,0,1,33.434,64.368ZM213.1,62.424c-2.1-2.855-4.361-5.643-6.73-8.288a1.426,1.426,0,0,1-.372-.97,1.445,1.445,0,0,1,2.519-.957c2.435,2.716,4.76,5.576,6.913,8.509a1.443,1.443,0,0,1-.309,2.015,1.444,1.444,0,0,1-2.021-.309Zm-14.24-15.88c-2.617-2.4-5.378-4.705-8.205-6.836a1.443,1.443,0,1,1,1.74-2.3c2.9,2.186,5.737,4.544,8.42,7.007a1.446,1.446,0,1,1-1.955,2.131ZM50.153,45.2a1.443,1.443,0,0,1,.116-2.038c1.453-1.287,2.955-2.557,4.473-3.772a1.446,1.446,0,0,1,1.805,2.259c-1.48,1.182-2.948,2.418-4.357,3.671a1.444,1.444,0,0,1-.96.365h0A1.434,1.434,0,0,1,50.153,45.2ZM181.817,33.7c-1.612-.988-3.274-1.944-4.942-2.844a1.444,1.444,0,0,1,1.375-2.54c1.712.922,3.418,1.905,5.074,2.916a1.446,1.446,0,0,1-1.507,2.468Z" fill="url(#linear-gradient)"/>
</svg>
