<svg xmlns="http://www.w3.org/2000/svg" xmlns:xlink="http://www.w3.org/1999/xlink"  viewBox="0 0 228.958 239.215">
  <defs>
    <linearGradient id="linear-gradient" x1="0.037" y1="0.123" x2="1.142" y2="0.666" gradientUnits="objectBoundingBox">
      <stop offset="0" stop-color="#355ce8"/>
      <stop offset="1" stop-color="#45a9e6"/>
    </linearGradient>
  </defs>
  <path id="Union_12" data-name="Union 12" d="M84.61,239.036a1.466,1.466,0,0,1-.77-1.292v-9.41a11.509,11.509,0,0,1-10.225-11.427V184.731a11.51,11.51,0,0,1,11.495-11.5h64.073a11.514,11.514,0,0,1,11.5,11.5v32.174a11.518,11.518,0,0,1-11.5,11.5H102.329L86.11,238.973a1.479,1.479,0,0,1-.8.241A1.444,1.444,0,0,1,84.61,239.036Zm-8.057-54.3v32.174a8.565,8.565,0,0,0,8.557,8.556h.2a1.471,1.471,0,0,1,1.472,1.472v8.1l14.314-9.326a1.448,1.448,0,0,1,.8-.242h47.287a8.564,8.564,0,0,0,8.556-8.556V184.731a8.564,8.564,0,0,0-8.556-8.556H85.11A8.565,8.565,0,0,0,76.553,184.731ZM85.34,219.62a14.2,14.2,0,1,1,17.7-.056v.005a14.183,14.183,0,0,1-17.7.05Zm5.7-15.877a3.905,3.905,0,0,0-1.079,2.848,2.643,2.643,0,0,0,.107.747,1.509,1.509,0,0,1,.058.4,1.469,1.469,0,0,1-.541,1.143c.012.045.022.1.04.163.061.253.158.613.258,1.18a1.453,1.453,0,0,1,.781,1.085l.023.146a3.472,3.472,0,0,0,1.073,1.961,1.973,1.973,0,0,1,.752,1.55v1.157A3,3,0,0,1,90.351,219c-.045.017-.1.028-.151.045a11.432,11.432,0,0,0,7.725.073c-.147-.039-.286-.073-.421-.112a3,3,0,0,1-2.164-2.876v-1.163a1.979,1.979,0,0,1,.731-1.534,4.421,4.421,0,0,0,1.208-1.814,1.576,1.576,0,0,0,.09-.292,1.476,1.476,0,0,1,.78-1.1c.107-.562.2-.922.259-1.18.016-.062.033-.112.044-.158a1.467,1.467,0,0,1-.489-1.545,3.015,3.015,0,0,0,.107-.77c0-.035,0-.071,0-.106a3.755,3.755,0,0,0-1.013-2.7,4.212,4.212,0,0,0-3.046-1.174A4.133,4.133,0,0,0,91.037,203.743ZM82.891,208.5a11.206,11.206,0,0,0,3.747,8.377l.388-.09c.9-.2,1.837-.416,2.516-.607l.017-.78a6.452,6.452,0,0,1-1.617-2.786,2.07,2.07,0,0,1-.877-1.4,13.866,13.866,0,0,0-.292-1.438,4.6,4.6,0,0,1-.185-1.3,2.547,2.547,0,0,1,.438-1.562c-.005-.1-.005-.2-.005-.3v-.09a6.837,6.837,0,0,1,1.932-4.848,7.406,7.406,0,0,1,10.208.034,6.633,6.633,0,0,1,1.856,4.745c0,.06,0,.121,0,.182-.005.09-.005.18-.016.27a2.526,2.526,0,0,1,.443,1.567,4.531,4.531,0,0,1-.185,1.3c-.074.309-.175.7-.292,1.444a2.035,2.035,0,0,1-.932,1.433v.005a8.367,8.367,0,0,1-.6,1.264,6.787,6.787,0,0,1-1.152,1.483v.73a16.382,16.382,0,0,0,2.4.528c.314.057.629.118.938.175a.522.522,0,0,0,.09.011A11.259,11.259,0,1,0,82.891,208.5Zm-19.337,9.86c-1.764-.887-3.533-1.831-5.252-2.8A1.469,1.469,0,1,1,59.75,213c1.674.95,3.4,1.865,5.118,2.724a1.471,1.471,0,0,1-.657,2.787A1.544,1.544,0,0,1,63.554,218.356Zm51.6-.714a1.469,1.469,0,1,1,0-2.938h37.737a1.469,1.469,0,1,1,0,2.938Zm55.484-3.6a1.478,1.478,0,0,1,.517-2.017c1.657-.977,3.315-2.011,4.921-3.073a1.467,1.467,0,0,1,2.034.41,1.472,1.472,0,0,1-.41,2.039c-1.651,1.09-3.348,2.152-5.051,3.158a1.416,1.416,0,0,1-.742.2A1.476,1.476,0,0,1,170.639,214.042Zm-53.225-3.433a1.472,1.472,0,1,1,0-2.944h35.477a1.472,1.472,0,1,1,0,2.944Zm-71.608-3.264a115.307,115.307,0,0,1-11.315-9.752,1.47,1.47,0,0,1,2.062-2.1A112.851,112.851,0,0,0,47.576,205a1.468,1.468,0,1,1-1.769,2.343Zm139.955-3.68a1.481,1.481,0,0,1,.185-2.073,112.792,112.792,0,0,0,9.012-8.4,1.47,1.47,0,1,1,2.118,2.039,115.529,115.529,0,0,1-9.241,8.618,1.471,1.471,0,0,1-2.074-.185Zm-71.663-.1a1.469,1.469,0,0,1,0-2.938h38.793a1.469,1.469,0,1,1,0,2.938Zm5.107-9.989-2.882-1.7-2.883,1.7a1.569,1.569,0,0,1-2.336-1.7l.73-3.253-2.511-2.2a1.584,1.584,0,0,1-.538-1.186,1.537,1.537,0,0,1,.077-.482,1.573,1.573,0,0,1,1.354-1.085l3.336-.309,1.327-3.062a1.574,1.574,0,0,1,2.887-.005.005.005,0,0,1,.005.005l1.326,3.062,3.337.309a1.576,1.576,0,0,1,.894,2.753l-2.517,2.2.736,3.247a1.569,1.569,0,0,1-.613,1.624,1.565,1.565,0,0,1-.922.3A1.594,1.594,0,0,1,119.206,193.58Zm-2.084-4.646.866.511-.22-.96a1.568,1.568,0,0,1-.04-.346,1.588,1.588,0,0,1,.545-1.193l.731-.634-.983-.09a1.567,1.567,0,0,1-1.3-.95l-.4-.91-.393.915a1.574,1.574,0,0,1-1.3.944l-.984.09.736.641a1.561,1.561,0,0,1,.536,1.19,1.6,1.6,0,0,1-.042.349l-.213.955.859-.506a1.582,1.582,0,0,1,1.6-.005ZM150.3,193.58l-2.882-1.7-2.883,1.7a1.574,1.574,0,0,1-2.38-1.352,1.609,1.609,0,0,1,.037-.345l.736-3.253-2.511-2.2a1.575,1.575,0,0,1,.894-2.753l3.336-.309,1.32-3.062a1.579,1.579,0,0,1,2.9.005l1.321,3.056,3.336.309a1.574,1.574,0,0,1,.894,2.753l-2.511,2.2.73,3.247a1.576,1.576,0,0,1-.607,1.624,1.6,1.6,0,0,1-.927.3A1.582,1.582,0,0,1,150.3,193.58Zm-2.083-4.646.859.511-.214-.96a1.557,1.557,0,0,1,.489-1.523l.742-.652-.977-.09a1.585,1.585,0,0,1-1.3-.95l-.393-.91-.393.915a1.588,1.588,0,0,1-1.3.944l-.977.09.73.641a1.58,1.58,0,0,1,.54,1.2,1.543,1.543,0,0,1-.04.343l-.213.955.854-.506a1.584,1.584,0,0,1,.8-.219A1.62,1.62,0,0,1,148.217,188.934Zm-13.461,4.646-2.883-1.7-2.887,1.7a1.572,1.572,0,0,1-2.374-1.352,1.609,1.609,0,0,1,.037-.345l.736-3.253-2.516-2.2a1.579,1.579,0,0,1-.536-1.186,1.561,1.561,0,0,1,.076-.482,1.578,1.578,0,0,1,1.354-1.085l3.337-.309,1.326-3.062a1.575,1.575,0,0,1,1.438-.949h.011a1.582,1.582,0,0,1,1.445.944v.005l1.326,3.062,3.337.309a1.574,1.574,0,0,1,.893,2.753l-2.511,2.2.731,3.247a1.528,1.528,0,0,1,.04.342,1.575,1.575,0,0,1-2.377,1.36Zm-2.09-4.646.865.511-.22-.96a1.667,1.667,0,0,1-.034-.35,1.573,1.573,0,0,1,.524-1.173l.747-.652-.983-.09a1.57,1.57,0,0,1-1.3-.95l-.393-.91-.4.915a1.573,1.573,0,0,1-1.3.944l-.983.09.736.641a1.576,1.576,0,0,1,.539,1.19,1.6,1.6,0,0,1-.04.349l-.219.955.859-.506a1.582,1.582,0,0,1,1.6-.005Zm-29,4.646-2.887-1.7-2.883,1.7a1.578,1.578,0,0,1-2.336-1.713l.73-3.236-2.511-2.2a1.559,1.559,0,0,1-.461-1.663,1.574,1.574,0,0,1,1.354-1.09l3.336-.309,1.327-3.062a1.577,1.577,0,0,1,1.444-.949h.011a1.576,1.576,0,0,1,1.438.955l1.326,3.056,3.337.309a1.577,1.577,0,0,1,.894,2.753l-2.517,2.2.736,3.247a1.636,1.636,0,0,1,.038.347,1.573,1.573,0,0,1-2.375,1.355Zm-2.09-4.646.866.511-.22-.96a1.513,1.513,0,0,1-.04-.34,1.578,1.578,0,0,1,.528-1.183l.747-.652-.983-.09a1.584,1.584,0,0,1-1.3-.95l-.393-.91-.393.915a1.589,1.589,0,0,1-1.3.944l-.978.09.736.641a1.576,1.576,0,0,1,.495,1.539l-.214.955.859-.506a1.576,1.576,0,0,1,.8-.219A1.594,1.594,0,0,1,101.576,188.934Zm-77.04-2.484c-1.224-1.561-2.416-3.168-3.545-4.781a1.447,1.447,0,0,1-.27-.851,1.473,1.473,0,0,1,2.675-.841c1.1,1.568,2.264,3.135,3.455,4.658a1.471,1.471,0,0,1-2.315,1.814Zm178.721-.534a1.473,1.473,0,0,1-.27-2.062,111.007,111.007,0,0,0,6.955-10.157,1.471,1.471,0,1,1,2.517,1.523,114.383,114.383,0,0,1-7.141,10.426,1.473,1.473,0,0,1-2.062.27Zm-9.7-6.7-16.219-10.573H130.486a11.511,11.511,0,0,1-11.5-11.5V124.979a11.511,11.511,0,0,1,11.5-11.5h64.068a11.511,11.511,0,0,1,11.5,11.5v32.169a11.523,11.523,0,0,1-10.225,11.433v9.41a1.475,1.475,0,0,1-2.275,1.23Zm-71.629-54.242v32.169a8.573,8.573,0,0,0,8.562,8.562h47.287a1.5,1.5,0,0,1,.8.237l14.315,9.331v-8.1a1.469,1.469,0,0,1,1.466-1.472h.2a8.569,8.569,0,0,0,8.556-8.562V124.979a8.569,8.569,0,0,0-8.555-8.562H130.486A8.574,8.574,0,0,0,121.925,124.979ZM33.014,174.738a1.434,1.434,0,0,1-.455-1.041,1.5,1.5,0,0,1,.337-.953c.023-.022.029-.056.051-.084L44.363,160.5c-.09,0-.185,0-.275-.005a1.469,1.469,0,0,1-1.379-1.462q0-.047,0-.094a1.449,1.449,0,0,1,1.556-1.376,14.942,14.942,0,0,0,3.488-.253c5.579-.972,12.3-4.365,17.725-7.809.252-.163.51-.326.758-.489H39.29a3.625,3.625,0,0,1-3.623-3.623V111.771c-.09.012-.185.022-.27.028a.844.844,0,0,1-.123.006,1.425,1.425,0,0,1-.152.011,2.731,2.731,0,0,1-.376-.028h-.056a3.2,3.2,0,0,1-.495-.107c-.045-.016-.084-.028-.129-.045a3.368,3.368,0,0,1-.326-.129c-.034-.017-.062-.028-.1-.045q-.186-.1-.338-.2a.4.4,0,0,0-.062-.045c-.084-.061-.157-.118-.224-.174-.017-.022-.04-.034-.056-.057a2.692,2.692,0,0,1-.2-.185,3.258,3.258,0,0,1-.747-1.314,3.778,3.778,0,0,1-.14-.764c-.005-.081-.008-.163-.008-.245a3.981,3.981,0,0,1,.041-.554l3.6-28.714a1.028,1.028,0,0,1,.033-.179,3.777,3.777,0,0,0,.124-.905v-.309a4.5,4.5,0,0,0-8.854-.983c0,.005-.005.005-.005.011a.192.192,0,0,1-.006.028c-.005.022-.016.045-.022.067l-12.018,37.8c-.68,3.422-2.387,12.461-2.381,14.506,0,.466.011.932.033,1.393a30.72,30.72,0,0,0,.5,4.141c.084.466.185.91.286,1.359a23.9,23.9,0,0,0,2.208,4.332,1.468,1.468,0,1,1-2.494,1.551,29.921,29.921,0,0,1-1.613-2.894l-8.685,8.86-.091.1a1.47,1.47,0,0,1-2.1-2.056l9.753-9.956c-.057-.247-.107-.494-.152-.747v-.005a33.569,33.569,0,0,1-.584-6.062,20.093,20.093,0,0,1,.208-2.3c.039-.331.09-.679.14-1.039q.042-.278.085-.556c.651-4.331,1.842-10.359,2.028-11.27a1.327,1.327,0,0,1,.039-.157l2.074-6.529,9.96-31.32c.04-.163.1-.31.147-.467.028-.084.045-.168.078-.247.045-.123.1-.242.152-.36s.089-.219.14-.326c.039-.085.084-.157.129-.236.073-.135.14-.275.225-.4.023-.045.056-.079.078-.118a7.5,7.5,0,0,1,5.848-3.411c.1-.005.192,0,.287,0,.152-.005.292-.011.444-.005a7.47,7.47,0,0,1,1.478.214,8.216,8.216,0,0,1,1.045.359l.2.085a6.619,6.619,0,0,1,.926.5,1.319,1.319,0,0,1,.147.1c.129.079.253.164.371.253V55.967a3.669,3.669,0,0,1,3.623-3.618h49.6a3.623,3.623,0,0,1,3,1.6,3.584,3.584,0,0,1,.618,2.022V69.592l2.107-1.225a8.168,8.168,0,0,1,9.612,1.241,8.1,8.1,0,0,1,1.489,1.944l.012.022.061.118a7.984,7.984,0,0,1,1.006,3.8c0,.024,0,.049,0,.075a8.2,8.2,0,0,1-1.232,4.33c-.028.05-.056.106-.089.158-.045.073-.1.134-.152.208a8.038,8.038,0,0,1-2.747,2.477l-9.118,5.332h.016a6.072,6.072,0,0,1,.843.112c.067.012.134.028.2.04a7.618,7.618,0,0,1,.776.224.2.2,0,0,1,.045.012,6.761,6.761,0,0,1,.775.348c.062.028.118.062.175.09a6.478,6.478,0,0,1,.7.444c.011.005.016.011.028.017a6.817,6.817,0,0,1,.646.55l.146.147a6.669,6.669,0,0,1,.556.64.03.03,0,0,1,.011.017,6.943,6.943,0,0,1,.473.731c.034.067.067.129.1.2a7.759,7.759,0,0,1,.365.82l1.062,3.034a6.565,6.565,0,0,1-.282,5.028,6.559,6.559,0,0,1-3.752,3.36l-.023.011c.023.012.045.028.073.045a7.158,7.158,0,0,1,.9.579l.1.085a6.383,6.383,0,0,1,.8.752c.028.029.05.057.073.085a6.417,6.417,0,0,1,.668.927c.012.023.023.04.034.062a6.448,6.448,0,0,1,.517,1.112l1.062,3.033c0,.006.005.012.005.017a6.3,6.3,0,0,1,.185.624c.006.028.006.05.012.073a6.557,6.557,0,0,1-.483,4.315,6.528,6.528,0,0,1-2.523,2.776.287.287,0,0,0-.028.017,5.1,5.1,0,0,1-.5.264c-.028.017-.056.033-.089.05-.2.09-.4.175-.618.253l-1.376.478c.011.005.022.005.028.011a7,7,0,0,1,.686.22c.067.022.129.056.2.078q.244.1.472.219c.079.04.158.079.23.124.14.078.281.163.416.253.073.05.14.1.208.14a5.317,5.317,0,0,1,.478.382c.033.022.067.05.1.073.179.163.348.337.511.517.05.056.1.118.14.179.113.13.219.27.32.41.051.073.1.146.147.219.1.147.179.3.264.455a2.4,2.4,0,0,1,.112.213,7.224,7.224,0,0,1,.3.708l.618,1.747a6.575,6.575,0,0,1,.371,2.181,6.783,6.783,0,0,1-.085,1.049,6.6,6.6,0,0,1-4.325,5.169l-.922.326a7.65,7.65,0,0,1-1.112.287c-.062.011-.124.028-.191.039a7.513,7.513,0,0,1-1.074.09c-.033,0-.067.006-.1.006s-.079-.006-.123-.006c-.1-.005-.191,0-.287-.005V145.39a3.622,3.622,0,0,1-2.887,3.545,3.522,3.522,0,0,1-.731.078H71.419c-.113.078-.236.163-.348.247-.208.151-.416.3-.635.454-.18.13-.371.259-.562.393-.22.152-.433.3-.658.45-.2.14-.41.275-.617.416-.225.146-.445.3-.675.444s-.444.286-.669.433h0c-.225.146-.45.286-.685.432s-.478.3-.72.444c-.224.14-.449.281-.685.416-.258.158-.523.309-.787.461l-.657.388c-.3.174-.608.337-.911.5-.191.113-.382.22-.579.327-.416.224-.837.449-1.258.668-.084.045-.174.09-.258.135-.506.264-1.022.518-1.534.77-.163.074-.32.147-.483.225-.354.168-.708.338-1.067.5-.2.089-.4.174-.6.264-.314.135-.634.275-.949.41-.219.09-.438.174-.652.264-.3.118-.6.241-.9.354-.23.085-.449.163-.674.248-.292.1-.579.208-.865.3-.23.078-.461.152-.686.225-.281.084-.562.174-.837.258-.229.068-.454.123-.68.185-.275.073-.544.146-.814.213-.23.056-.455.1-.68.152-.175.039-.355.084-.534.118L35.093,174.67a1.466,1.466,0,0,1-2.079.067Zm5.6-29.348a.678.678,0,0,0,.68.68h49.6a.671.671,0,0,0,.68-.68v-4.225H38.61Zm0-35.714v28.551H89.564v-4.505a7.371,7.371,0,0,1-3.674-4.18l-.034-.089a7.54,7.54,0,0,1-.432-2.489,7.432,7.432,0,0,1,4.14-6.669v-.506a7.408,7.408,0,0,1-4.769-4.612l-.489-1.4a7.437,7.437,0,0,1,4.275-9.377,7.441,7.441,0,0,1-3.949-4.3L84.137,98.7A7.452,7.452,0,0,1,88.7,89.2l.859-.3V61.642H38.61Zm53.7,12.7-.781.275-.123.044a4.5,4.5,0,0,0-2.786,5.753l.033.1a4.508,4.508,0,0,0,5.759,2.787l.921-.326a3.643,3.643,0,0,0,2.439-3.214h0c.006-.088.009-.177.009-.267a3.57,3.57,0,0,0-.205-1.171l-.618-1.742a3.648,3.648,0,0,0-4.646-2.236Zm-.258-16.1-.534.185-1.674.59a4.523,4.523,0,0,0-3.021,4.225,4.511,4.511,0,0,0,.257,1.522l.488,1.4a4.522,4.522,0,0,0,5.754,2.753l2.208-.776a3.641,3.641,0,0,0,2.23-4.64L96.7,108.507a3.65,3.65,0,0,0-4.646-2.23Zm-57.231,2.034a1.01,1.01,0,0,0-.009.135.523.523,0,0,0,.111.354c.118.123.365.107.741-.056V101.58ZM89.677,91.979a4.5,4.5,0,0,0-2.764,5.747L87.4,99.12a4.533,4.533,0,0,0,3.781,2.994,4.4,4.4,0,0,0,1.966-.23l2.208-.781a3.6,3.6,0,0,0,2.079-1.854,3.634,3.634,0,0,0,.158-2.786l-1.062-3.028A3.66,3.66,0,0,0,93.082,91a3.563,3.563,0,0,0-1.2.208l-.359.124H91.52ZM96.06,70.923,92.5,73V85.215l8.618-5.034a5.192,5.192,0,0,0,2.079-7.09l-.073-.14a5.212,5.212,0,0,0-7.068-2.028ZM38.61,55.967V58.7H89.565V55.967a.671.671,0,0,0-.416-.624.587.587,0,0,0-.265-.056H39.29A.678.678,0,0,0,38.61,55.967ZM216.453,164.783a1.474,1.474,0,0,1-.85-1.334,1.458,1.458,0,0,1,.137-.622,111.735,111.735,0,0,0,4.551-11.438,1.469,1.469,0,1,1,2.786.932,112.822,112.822,0,0,1-4.675,11.742,1.465,1.465,0,0,1-1.331.854A1.5,1.5,0,0,1,216.453,164.783Zm-39.651-7.1a14.164,14.164,0,1,1,8.815,3.079A14.141,14.141,0,0,1,176.8,157.681Zm7.815-16.955a3.948,3.948,0,0,0-2.118,1.085,3.88,3.88,0,0,0-1.079,2.842,2.624,2.624,0,0,0,.107.748,1.507,1.507,0,0,1,.058.4,1.469,1.469,0,0,1-.541,1.143c.012.045.022.1.04.163.062.258.157.613.258,1.18a1.46,1.46,0,0,1,.781,1.085l.028.151a3.456,3.456,0,0,0,1.067,1.961,2.156,2.156,0,0,1,.32.32,1.914,1.914,0,0,1,.382.787,1.973,1.973,0,0,1,.05.444v1.151a3,3,0,0,1-2.156,2.876c-.046.012-.1.029-.152.04a11.431,11.431,0,0,0,7.725.073c-.146-.033-.287-.073-.422-.113a3.007,3.007,0,0,1-1.814-1.477,2.974,2.974,0,0,1-.348-1.4v-1.163a1.987,1.987,0,0,1,.736-1.534,4.466,4.466,0,0,0,1.2-1.814,1.33,1.33,0,0,0,.09-.292,1.467,1.467,0,0,1,.78-1.1c.107-.567.2-.922.259-1.18.016-.062.033-.118.045-.163a1.461,1.461,0,0,1-.547-1.143,1.508,1.508,0,0,1,.058-.4,3.027,3.027,0,0,0,.107-.77c0-.035,0-.071,0-.106a3.761,3.761,0,0,0-1.013-2.7,4.2,4.2,0,0,0-3.045-1.168A4.81,4.81,0,0,0,184.616,140.726Zm-10.264,5.831a11.206,11.206,0,0,0,3.747,8.377l.393-.09c.9-.2,1.831-.41,2.506-.607l.022-.781a6.432,6.432,0,0,1-1.618-2.786,2.058,2.058,0,0,1-.876-1.393,14.3,14.3,0,0,0-.292-1.445,4.588,4.588,0,0,1-.185-1.3,2.565,2.565,0,0,1,.438-1.567c-.005-.1-.005-.191-.005-.292v-.09a6.819,6.819,0,0,1,1.932-4.848,7.4,7.4,0,0,1,10.208.029,6.65,6.65,0,0,1,1.856,4.746c0,.06,0,.121,0,.181-.005.1-.011.185-.017.275a2.516,2.516,0,0,1,.445,1.567,4.151,4.151,0,0,1-.113,1.012c-.022.1-.045.185-.073.286-.074.31-.175.691-.293,1.445a2.046,2.046,0,0,1-.932,1.432,7.6,7.6,0,0,1-1.753,2.753v.725a17.06,17.06,0,0,0,2.4.534q.481.085.943.169l.085.016a11.259,11.259,0,1,0-18.814-8.348Zm-45.316,9.827a1.469,1.469,0,1,1,0-2.938h35.321a1.469,1.469,0,1,1,0,2.938Zm2.259-7.04a1.469,1.469,0,1,1,0-2.939h33.062a1.469,1.469,0,1,1,0,2.939Zm-3.77-7.04a1.469,1.469,0,0,1,0-2.938h36.832a1.469,1.469,0,1,1,0,2.938Zm97.142-1.045a1.479,1.479,0,0,1-1.162-1.434,1.5,1.5,0,0,1,.032-.313,110.951,110.951,0,0,0,1.916-12.163,1.468,1.468,0,0,1,2.929.142,1.4,1.4,0,0,1-.008.149,113.84,113.84,0,0,1-1.96,12.489,1.464,1.464,0,0,1-1.747,1.129Zm-62.294-7.517a1.585,1.585,0,0,1-.607-1.629l.73-3.242-2.511-2.2a1.585,1.585,0,0,1-.538-1.189,1.557,1.557,0,0,1,.077-.485,1.577,1.577,0,0,1,1.354-1.079l3.337-.309,1.326-3.062v-.005a1.576,1.576,0,0,1,2.887,0l1.331,3.067,3.338.309A1.569,1.569,0,0,1,174.448,125a1.578,1.578,0,0,1-.455,1.674l-2.517,2.2.736,3.253a1.572,1.572,0,0,1-2.343,1.7l-2.882-1.7-2.882,1.7a1.574,1.574,0,0,1-1.731-.084Zm5.415-4.562.859.511-.219-.96a1.571,1.571,0,0,1,.511-1.545l.724-.629-.983-.1a1.577,1.577,0,0,1-1.3-.944l-.393-.91-.393.915a1.574,1.574,0,0,1-1.3.939l-.984.1.736.641a1.55,1.55,0,0,1,.536,1.186,1.58,1.58,0,0,1-.041.347l-.213.96.859-.511a1.575,1.575,0,0,1,1.6,0ZM152.5,133.826l-2.888-1.7-2.882,1.7a1.57,1.57,0,0,1-2.337-1.7l.736-3.258-2.517-2.2a1.575,1.575,0,0,1,.894-2.753l3.337-.309,1.326-3.062a1.575,1.575,0,0,1,2.893.005l1.326,3.056,3.337.309A1.582,1.582,0,0,1,157.082,125a1.609,1.609,0,0,1,.076.485,1.584,1.584,0,0,1-.536,1.189l-2.516,2.2.735,3.253a1.582,1.582,0,0,1,.04.347,1.574,1.574,0,0,1-2.376,1.354Zm-2.084-4.646.859.511-.22-.96a1.6,1.6,0,0,1-.038-.344,1.577,1.577,0,0,1,.533-1.184l.742-.646-.984-.1a1.554,1.554,0,0,1-1.3-.944l-.4-.91-.393.915a1.558,1.558,0,0,1-1.3.939l-.977.1.735.641a1.58,1.58,0,0,1,.538,1.19,1.6,1.6,0,0,1-.038.344l-.22.96.86-.511a1.569,1.569,0,0,1,1.6,0Zm-15.286,4.646-2.888-1.7-2.882,1.7a1.576,1.576,0,0,1-2.375-1.352,1.611,1.611,0,0,1,.038-.345l.736-3.258-2.517-2.2a1.575,1.575,0,0,1,.894-2.753l3.337-.309,1.326-3.062a1.572,1.572,0,0,1,1.438-.949h.011a1.57,1.57,0,0,1,1.444.944l1.327,3.067,3.337.309A1.574,1.574,0,0,1,139.712,125a1.557,1.557,0,0,1,.077.485,1.579,1.579,0,0,1-.538,1.189l-2.511,2.2.731,3.253a1.569,1.569,0,0,1-1.534,1.922A1.565,1.565,0,0,1,135.133,133.826Zm-2.068-4.634.843.5-.22-.96a1.578,1.578,0,0,1,.512-1.545l.725-.629-.984-.1a1.574,1.574,0,0,1-1.286-.916l-.4-.938-.4.915a1.567,1.567,0,0,1-1.3.939l-.983.1.736.641a1.568,1.568,0,0,1,.5,1.534l-.219.96.86-.511a1.569,1.569,0,0,1,1.617.012ZM.272,116.017c0-1.977.05-3.982.152-5.954a1.471,1.471,0,0,1,2.94.076c0,.025,0,.05,0,.076-.1,1.922-.152,3.876-.152,5.8a1.469,1.469,0,0,1-2.938,0Zm227.214.484a1.478,1.478,0,0,1-1.471-1.461,111.755,111.755,0,0,0-.776-12.292,1.536,1.536,0,0,1-.01-.169,1.471,1.471,0,0,1,2.931-.179,118.219,118.219,0,0,1,.8,12.618v.019A1.478,1.478,0,0,1,227.5,116.5Zm-164.1-1.23L52.306,105.5c-4.409-4.4-5.813-7.216-5.819-10.006a11.315,11.315,0,0,1,.386-2.78,10.36,10.36,0,0,1,7.562-7.7c3.781-1.062,7.6.646,10.237,2.842,2.685-2.218,6.472-3.893,10.224-2.842a10.358,10.358,0,0,1,7.562,7.7,10.515,10.515,0,0,1,.337,2.574c0,3.2-1.7,6.147-5.584,10.027l-11.264,9.955a1.939,1.939,0,0,1-2.561,0ZM55.228,87.85a7.425,7.425,0,0,0-5.5,5.578,8.1,8.1,0,0,0-.3,1.989c0,1.9,1,4.054,4.886,7.944l10.348,9.118,10.534-9.3c3.55-3.555,4.66-5.785,4.658-7.895a7.566,7.566,0,0,0-.254-1.853,7.425,7.425,0,0,0-5.5-5.578c-3.056-.859-6.321.977-8.348,2.983a1.539,1.539,0,0,1-2.129.05c-1.719-1.7-4.247-3.246-6.8-3.246A5.976,5.976,0,0,0,55.228,87.85ZM3,99.074a1.468,1.468,0,0,1-1.232-1.444,1.375,1.375,0,0,1,.019-.241,114.946,114.946,0,0,1,2.753-12.41,1.471,1.471,0,0,1,2.831.8A110.784,110.784,0,0,0,4.682,97.86,1.47,1.47,0,0,1,3.238,99.1,1.752,1.752,0,0,1,3,99.074ZM147.16,98.72A7.638,7.638,0,0,1,142.1,85.354a7.633,7.633,0,0,1-1.23-12.343,7.639,7.639,0,0,1-.686-12.786,7.64,7.64,0,0,1,4.505-13.81h22.652L162.222,26.8a7.937,7.937,0,0,1-.2-1.713,7.642,7.642,0,0,1,14.247-3.866l18.258,29.843a30.874,30.874,0,0,1-25.91,47.658Zm0-12.343a4.7,4.7,0,1,0,0,9.4h21.461a27.935,27.935,0,0,0,23.427-43.147L173.756,22.741a.145.145,0,0,1-.022-.033,4.7,4.7,0,0,0-8.774,2.348,4.782,4.782,0,0,0,.117,1.04l5.6,21.422a1.436,1.436,0,0,1,.049.374,1.467,1.467,0,0,1-1.471,1.463H144.695a4.7,4.7,0,1,0,0,9.4h10.679a1.469,1.469,0,1,1,0,2.938H144.695a4.7,4.7,0,1,0,0,9.4h10.679a1.469,1.469,0,1,1,0,2.938h-9.45a4.7,4.7,0,0,0,0,9.4h1.236a.887.887,0,0,1,.124.011.874.874,0,0,1,.123-.011h7.967a1.469,1.469,0,1,1,0,2.938h-7.967c-.045,0-.084-.011-.123-.011S147.206,86.377,147.16,86.377Zm75.95,4.242a110.316,110.316,0,0,0-3.455-11.82,1.449,1.449,0,0,1-.086-.488,1.47,1.47,0,0,1,2.856-.5,115.055,115.055,0,0,1,3.551,12.135,1.438,1.438,0,0,1,.039.33,1.476,1.476,0,0,1-1.135,1.434,1.344,1.344,0,0,1-.337.04A1.48,1.48,0,0,1,223.11,90.618ZM9.468,74.871a1.472,1.472,0,0,1-.808-1.916A114.584,114.584,0,0,1,14.1,61.466a1.471,1.471,0,1,1,2.584,1.4,111.89,111.89,0,0,0-5.3,11.191,1.474,1.474,0,0,1-1.916.809ZM214.9,67.44a109.513,109.513,0,0,0-5.983-10.764,1.458,1.458,0,0,1-.226-.776,1.47,1.47,0,0,1,2.714-.792,115.237,115.237,0,0,1,6.141,11.046A1.471,1.471,0,0,1,214.9,67.44ZM21.148,52.7a1.464,1.464,0,0,1-.365-2.045A115.039,115.039,0,0,1,28.62,40.652a1.471,1.471,0,0,1,2.213,1.938,113.253,113.253,0,0,0-7.64,9.748,1.468,1.468,0,0,1-1.208.629A1.433,1.433,0,0,1,21.148,52.7Zm180.613-6.095c-1.2-1.5-2.454-3-3.73-4.439a1.469,1.469,0,1,1,2.2-1.949c1.314,1.483,2.6,3.017,3.831,4.557a1.47,1.47,0,0,1-2.3,1.832ZM112.925,36.461c-.146.006-.286.012-.432.012-16.815,0-30.872-10.921-36.136-15.613a3.519,3.519,0,0,1,0-5.247C81.621,10.916,95.677,0,112.493,0c.146,0,.286.005.432.005.057,0,.112-.005.168-.005.135,0,.265.017.393.017,16.376.416,29.989,10.994,35.147,15.6a3.517,3.517,0,0,1,0,5.247c-5.157,4.6-18.77,15.175-35.147,15.591-.129.005-.258.022-.393.022C113.037,36.472,112.982,36.461,112.925,36.461ZM97.8,18.236a15.3,15.3,0,1,0,15.292-15.3A15.314,15.314,0,0,0,97.8,18.236ZM78.318,17.8a.573.573,0,0,0-.2.433.563.563,0,0,0,.2.427c3.719,3.32,12.05,9.91,22.573,13.079a18.139,18.139,0,0,1,0-27.017C90.368,7.893,82.037,14.484,78.318,17.8Zm53.017.432a18.187,18.187,0,0,1-5.365,12.9,64.111,64.111,0,0,0,20.7-12.472.554.554,0,0,0,.192-.427.563.563,0,0,0-.192-.432,64.079,64.079,0,0,0-20.7-12.472A18.186,18.186,0,0,1,131.335,18.236ZM37.424,33.652a1.474,1.474,0,0,1,.1-2.079,115.268,115.268,0,0,1,9.843-8.04,1.47,1.47,0,1,1,1.73,2.377,113.233,113.233,0,0,0-9.59,7.831,1.47,1.47,0,0,1-2.079-.089Zm68.068-15.415a7.6,7.6,0,1,1,7.6,7.6A7.61,7.61,0,0,1,105.492,18.237Zm2.944,0a4.66,4.66,0,1,0,4.658-4.663A4.663,4.663,0,0,0,108.436,18.237Zm-50.95.4a1.473,1.473,0,0,1,.551-2.006c1.724-.983,3.488-1.932,5.247-2.814A1.471,1.471,0,0,1,64.6,16.444c-1.708.859-3.433,1.781-5.113,2.741a1.485,1.485,0,0,1-.725.192A1.469,1.469,0,0,1,57.486,18.635Z" fill="url(#linear-gradient)"/>
</svg>
