<svg xmlns="http://www.w3.org/2000/svg" xmlns:xlink="http://www.w3.org/1999/xlink" width="239.172" height="218.799" viewBox="0 0 239.172 218.799">
  <defs>
    <linearGradient id="linear-gradient" x1="0.864" x2="0.222" y2="1" gradientUnits="objectBoundingBox">
      <stop offset="0" stop-color="#355ce8"/>
      <stop offset="1" stop-color="#45a9e6"/>
    </linearGradient>
  </defs>
  <path id="Union_11" data-name="Union 11" d="M106.83,218.8H3.358a3.335,3.335,0,0,1-3.124-2.086A3.221,3.221,0,0,1,0,215.52a3.172,3.172,0,0,1,.922-2.226l13.367-17.868V119.674a9.9,9.9,0,0,1,10.076-9.682h9.752V95.363a3.367,3.367,0,0,1,3.411-3.314H138.287a3.367,3.367,0,0,1,3.412,3.314v14.629h9.548a9.906,9.906,0,0,1,10.093,9.682v75.751l13.35,17.868a3.179,3.179,0,0,1,.926,2.23,3.217,3.217,0,0,1-.234,1.194,3.33,3.33,0,0,1-3.127,2.081Zm-2.8-9.466a2.066,2.066,0,0,1,1.738.932,1.285,1.285,0,0,1,.15.305l1.9,5.426h64.433a.525.525,0,0,0,.531-.316.413.413,0,0,0,.031-.154.42.42,0,0,0-.148-.3,1.426,1.426,0,0,1-.156-.174l-13.27-17.763H16.386L3.1,215.054a1.551,1.551,0,0,1-.156.179.391.391,0,0,0-.143.29.417.417,0,0,0,.031.153.528.528,0,0,0,.528.321H67.994l1.9-5.426a1.348,1.348,0,0,1,.154-.311,2.076,2.076,0,0,1,1.737-.927ZM70.956,216h33.9L103.5,212.13H72.31ZM17.084,119.674v74.814H158.545V119.674a7.111,7.111,0,0,0-7.3-6.885H141.7v4.973h9.084a3.466,3.466,0,0,1,3.461,3.461V187.35a3.466,3.466,0,0,1-3.461,3.461H24.834a3.466,3.466,0,0,1-3.461-3.461V121.223a3.466,3.466,0,0,1,3.461-3.461h9.282v-4.973H24.364A7.1,7.1,0,0,0,17.084,119.674ZM141.7,188.014h9.084a.666.666,0,0,0,.665-.663V121.223a.667.667,0,0,0-.665-.664H141.7Zm-104.788,0H138.9v-57.5H73.054a13.64,13.64,0,0,1-2.427,4.124h0a14.866,14.866,0,0,1-22.433-.042h0A13.693,13.693,0,0,1,45.8,130.51H36.911Zm-12.743-66.79V187.35a.667.667,0,0,0,.666.663h9.282V120.559H24.834A.667.667,0,0,0,24.168,121.223ZM56.33,120a3.318,3.318,0,0,0-.934,2.405v.023a2.193,2.193,0,0,0,.1.638,1.382,1.382,0,0,1,.058.4,1.4,1.4,0,0,1-.5,1.066c.006.021.012.042.018.069.06.221.144.537.238,1.022a1.4,1.4,0,0,1,.748,1.043l.023.126a2.96,2.96,0,0,0,.981,1.7,1.86,1.86,0,0,1,.741,1.475v1.043a2.792,2.792,0,0,1-2.059,2.665c-.716.195-1.633.39-2.521.585-.33.068-.656.137-.971.211a.946.946,0,0,0-.121.026,12.17,12.17,0,0,0,14.61-.016.117.117,0,0,1-.042-.01c-.23-.048-.479-.09-.738-.137-.061-.011-.122-.027-.184-.032-.25-.048-.5-.09-.757-.132-.935-.158-1.82-.305-2.5-.495a2.784,2.784,0,0,1-2.067-2.666v-1.048a1.845,1.845,0,0,1,.722-1.459,3.908,3.908,0,0,0,1.118-1.6,1.1,1.1,0,0,0,.075-.237,1.4,1.4,0,0,1,.747-1.038c.1-.485.178-.8.239-1.022.006-.026.012-.048.018-.069a1.408,1.408,0,0,1-.5-1.071,1.372,1.372,0,0,1,.06-.4,2.562,2.562,0,0,0,.1-.659c0-.038,0-.075,0-.113a3.154,3.154,0,0,0-.876-2.279,4.1,4.1,0,0,0-2.942-1.112A3.987,3.987,0,0,0,56.33,120Zm7.823-1.944a5.936,5.936,0,0,1,1.673,4.248c0,.054,0,.107,0,.161s0,.137-.009.2a2.358,2.358,0,0,1,.415,1.454,4.206,4.206,0,0,1-.179,1.206,11.688,11.688,0,0,0-.277,1.285,1.956,1.956,0,0,1-.32.8,2.056,2.056,0,0,1-.574.543,6.938,6.938,0,0,1-1.637,2.455v.606c.559.116,1.413.263,2.239.4.785.132,1.6.268,2.25.427.1.021.228.053.385.084.256.058.581.126.924.211a10.5,10.5,0,0,0,2.054-6.259c0-6.095-5.236-11.052-11.672-11.052s-11.672,4.957-11.672,11.052h0a10.523,10.523,0,0,0,2.055,6.258l.512-.105c.211-.037.387-.074.5-.1.549-.132,1.181-.269,1.82-.406.213-.047.427-.089.639-.137.635-.137,1.249-.279,1.728-.411v-.559a5.863,5.863,0,0,1-1.521-2.5,1.928,1.928,0,0,1-.837-1.3,12.268,12.268,0,0,0-.276-1.29,4.109,4.109,0,0,1-.179-1.2,2.333,2.333,0,0,1,.414-1.448c0-.074-.007-.148-.007-.227V122.4a6.064,6.064,0,0,1,1.745-4.379,7.171,7.171,0,0,1,9.807.032Zm9.741,7.817a13.069,13.069,0,0,1-.143,1.839H138.9V106.052H36.911v21.661H45.1a13.073,13.073,0,0,1-.143-1.839c0-7.638,6.49-13.849,14.467-13.849S73.893,118.236,73.893,125.874ZM36.911,95.363v7.886H138.9V95.363a.575.575,0,0,0-.617-.516H37.527A.574.574,0,0,0,36.911,95.363ZM17.982,207.436a1.4,1.4,0,0,1,0-2.8h139.85a1.4,1.4,0,0,1,0,2.8Zm2.332-4.9a1.4,1.4,0,0,1,0-2.8H155.5a1.4,1.4,0,0,1,0,2.8Zm155.61-4.688a1.4,1.4,0,0,1,.446-1.928c1.554-.969,3.1-2,4.6-3.045a1.4,1.4,0,1,1,1.6,2.291c-1.54,1.08-3.13,2.133-4.724,3.129a1.4,1.4,0,0,1-1.925-.448Zm14.449-10.5a1.4,1.4,0,0,1,.122-1.975,107.024,107.024,0,0,0,8.609-8.539,1.4,1.4,0,0,1,2.077,1.87,109.265,109.265,0,0,1-8.835,8.766,1.384,1.384,0,0,1-.924.353A1.4,1.4,0,0,1,190.373,187.345ZM85.337,181.814a1.4,1.4,0,0,1-1.4-1.4V150.818a1.4,1.4,0,0,1,1.4-1.4h47.044a1.4,1.4,0,0,1,1.4,1.4v29.595a1.4,1.4,0,0,1-1.4,1.4Zm1.4-2.8h44.249V152.219H86.735Zm-37.282,1.038a1.4,1.4,0,0,1,0-2.8H70.536a1.4,1.4,0,0,1,0,2.8Zm0-8.234a1.4,1.4,0,0,1,0-2.8H70.536a1.4,1.4,0,0,1,0,2.8Zm157.561-2.5a1.4,1.4,0,0,1-.327-1.954,106.229,106.229,0,0,0,6.459-10.267,1.4,1.4,0,0,1,2.445,1.354,108.978,108.978,0,0,1-6.628,10.541,1.4,1.4,0,0,1-1.95.326ZM49.453,163.587a1.4,1.4,0,0,1,0-2.8H70.536a1.4,1.4,0,0,1,0,2.8Zm0-8.233a1.4,1.4,0,0,1,0-2.8H70.536a1.4,1.4,0,0,1,0,2.8Zm169.7-7.364a1.4,1.4,0,0,1-.762-1.828,105.767,105.767,0,0,0,3.953-11.468,1.4,1.4,0,0,1,1.724-.969h0a1.4,1.4,0,0,1,.965,1.728,108.5,108.5,0,0,1-4.055,11.774,1.4,1.4,0,0,1-1.294.869A1.456,1.456,0,0,1,219.152,147.989Zm-169.7-.864a1.4,1.4,0,0,1,0-2.8H70.536a1.4,1.4,0,0,1,0,2.8Zm32.734-7.28a5.482,5.482,0,1,1,5.479,5.284A5.391,5.391,0,0,1,82.187,139.845Zm2.8,0a2.69,2.69,0,1,0,2.683-2.492A2.594,2.594,0,0,0,84.983,139.845Zm12.235,4.383a1.4,1.4,0,0,1,0-2.8h9.6a1.4,1.4,0,0,1,0,2.8Zm0-5.6a1.4,1.4,0,0,1,0-2.8H126.86a1.4,1.4,0,0,1,0,2.8ZM206.86,125.084l-13.088-12.326c-.2-.037-.408-.09-.611-.132-.236-.053-.472-.1-.71-.158-.274-.068-.551-.142-.828-.216-.246-.069-.491-.127-.74-.2-.275-.084-.553-.174-.831-.263-.255-.079-.508-.153-.764-.243q-.418-.142-.838-.3c-.258-.09-.516-.179-.776-.279-.282-.106-.565-.222-.848-.337-.259-.1-.517-.2-.777-.311-.283-.116-.565-.248-.848-.369-.261-.116-.521-.221-.782-.342-.286-.126-.571-.263-.856-.4-.255-.121-.511-.237-.766-.358-.531-.258-1.058-.522-1.583-.8-.268-.137-.534-.284-.8-.421s-.527-.279-.787-.421-.536-.3-.8-.448-.507-.279-.757-.422-.521-.305-.781-.458-.5-.29-.741-.437-.5-.3-.748-.453-.49-.3-.73-.453-.478-.305-.717-.453-.473-.305-.7-.453-.459-.305-.687-.458-.452-.3-.672-.448-.437-.3-.654-.453-.426-.295-.632-.442-.41-.3-.612-.437c-.138-.1-.283-.205-.418-.3H151.629a3.655,3.655,0,0,1-3.648-3.656V85.886c-.146.01-.291,0-.437.01-.046,0-.091.011-.137.011s-.079-.005-.118-.005c-.086,0-.172-.005-.258-.011-.159-.01-.317-.021-.475-.037-.088-.011-.176-.021-.263-.037-.164-.021-.327-.053-.489-.089l-.232-.048c-.233-.058-.464-.127-.693-.206a.01.01,0,0,1-.011-.005l-.974-.342a6.757,6.757,0,0,1-4.457-7.322,6.81,6.81,0,0,1,.317-1.3l.65-1.844a6.671,6.671,0,0,1,.33-.769c.036-.074.075-.142.113-.216.1-.179.206-.358.319-.527.042-.063.08-.127.123-.185a6.358,6.358,0,0,1,.5-.627.826.826,0,0,0,.069-.068,6.252,6.252,0,0,1,.511-.485c.058-.053.116-.095.175-.148.165-.132.335-.253.511-.369.049-.032.1-.069.145-.1a7.036,7.036,0,0,1,.7-.379,1.219,1.219,0,0,1,.125-.053c.2-.089.41-.169.62-.242l.211-.063q.319-.094.648-.158a.708.708,0,0,1,.1-.026l-1.916-.675a6.824,6.824,0,0,1-1.759-.922,6.747,6.747,0,0,1-2.09-2.529,6.851,6.851,0,0,1-.458-1.254,6.664,6.664,0,0,1-.212-1.677c0-.092,0-.185.006-.277a6.785,6.785,0,0,1,.377-1.954l.555-1.591.555-1.591a.2.2,0,0,0,.015-.037c.075-.206.158-.411.251-.606.031-.068.07-.126.1-.195.072-.137.143-.279.223-.411.041-.068.088-.132.131-.195.081-.126.159-.253.247-.369.049-.063.1-.121.154-.184.089-.111.178-.227.274-.327.055-.063.114-.116.17-.174.1-.1.2-.2.3-.295.06-.053.124-.1.186-.153.107-.09.214-.179.326-.263.067-.047.137-.089.205-.137.113-.074.225-.153.343-.221a2.29,2.29,0,0,1,.223-.121c.118-.068.234-.132.355-.19l.04-.016-.345-.126a6.669,6.669,0,0,1-2.3-1.37,6.12,6.12,0,0,1-.462-.464,6.784,6.784,0,0,1-1.084-1.612,6.966,6.966,0,0,1-.448-1.217,6.784,6.784,0,0,1-.222-1.706q0-.124,0-.249a6.642,6.642,0,0,1,.056-.664,6.768,6.768,0,0,1,.32-1.333l1.11-3.177a6.566,6.566,0,0,1,.391-.88c.039-.079.078-.153.119-.227a7.6,7.6,0,0,1,.469-.721c.066-.085.139-.169.21-.253.117-.142.239-.274.366-.406.109-.111.22-.221.338-.327.157-.137.321-.274.49-.4a4.808,4.808,0,0,1,.408-.274c.1-.063.211-.127.318-.185a6.3,6.3,0,0,1,.666-.321c.136-.058.272-.111.411-.163s.265-.09.4-.127a6.225,6.225,0,0,1,.764-.163c.086-.016.172-.021.259-.032a6.449,6.449,0,0,1,.783-.047c.037,0,.072-.005.109-.005l-10.019-5.863a8.288,8.288,0,0,1-3.981-5,8.487,8.487,0,0,1-.335-2.339c0-.038,0-.077,0-.116a8.338,8.338,0,0,1,1.045-3.935l.057-.111a8.408,8.408,0,0,1,10.641-3.7c.261.111.519.237.772.374l1.183.7,1.264.737V3.651A3.654,3.654,0,0,1,151.629,0h51.949a3.655,3.655,0,0,1,3.65,3.651V20.787c.021-.016.045-.032.065-.048.183-.147.373-.289.57-.421l.046-.032a6.358,6.358,0,0,1,.659-.385c.058-.032.118-.058.176-.084a5.172,5.172,0,0,1,.539-.237l.2-.079a6.97,6.97,0,0,1,.741-.232c.254-.063.509-.111.763-.148a7.176,7.176,0,0,1,.75-.074h.009a7.684,7.684,0,0,1,7.746,5.752v0s0,0,0,0l12.6,39.682a1.357,1.357,0,0,1,.038.148c.165.832,1.13,5.716,1.829,9.956.14.848.27,1.67.38,2.429.082.569.154,1.106.211,1.586a17.985,17.985,0,0,1,.15,1.891v.021a34.754,34.754,0,0,1-.606,6.342c-.058.316-.121.627-.19.938l4.956,6.148a1.4,1.4,0,0,1-.21,1.97,1.391,1.391,0,0,1-1.873-.116,1.013,1.013,0,0,1-.092-.095l-3.925-4.872a33.694,33.694,0,0,1-1.671,3,1.4,1.4,0,0,1-2.372-1.48,24.938,24.938,0,0,0,2.326-4.578c.11-.474.213-.948.3-1.433a32.185,32.185,0,0,0,.558-5.837V80.5c0-2.179-1.79-11.652-2.5-15.232L216.815,25.606c-.01-.037-.02-.068-.027-.1,0-.005,0-.005,0-.011-.015-.053-.042-.105-.059-.158h0a4.847,4.847,0,0,0-9.5,1.222v.305a4.392,4.392,0,0,0,.1.822c.014.063.021.126.036.19a1.291,1.291,0,0,1,.032.169l3.773,30.137a3.458,3.458,0,0,1,.033.475,3.756,3.756,0,0,1-.122.942c-.012.047-.013.1-.027.142a3.035,3.035,0,0,1-.163.385c-.048.105-.081.221-.139.321a3.334,3.334,0,0,1-.457.622c-.05.053-.115.116-.186.184-.022.016-.045.037-.07.058q-.091.079-.2.158c-.028.021-.054.042-.085.063a3.094,3.094,0,0,1-.327.195c-.034.021-.071.032-.107.053-.1.042-.2.09-.307.127l-.144.047a3.167,3.167,0,0,1-.478.106.131.131,0,0,0-.044,0,3.353,3.353,0,0,1-.41.027,1.18,1.18,0,0,1-.136-.011.875.875,0,0,1-.118-.005,3.561,3.561,0,0,1-.455-.058V97.438a3.656,3.656,0,0,1-3.65,3.656H174.872c.8.527,1.628,1.054,2.483,1.575h0a70.1,70.1,0,0,0,11.275,5.679,33.972,33.972,0,0,0,6.049,1.733,15.718,15.718,0,0,0,3.7.263,1.388,1.388,0,0,1,1.478,1.312c0,.03,0,.06,0,.09a1.4,1.4,0,0,1-1.314,1.395c-.09.005-.185,0-.276.005l10.511,9.9c.015.016.021.037.035.053a1.405,1.405,0,0,1,.4.974,1.394,1.394,0,0,1-2.35,1.012ZM150.776,97.439a.852.852,0,0,0,.853.853h51.949a.852.852,0,0,0,.854-.853V90.1H150.776Zm0-76.81V38.292l1,.353a7.656,7.656,0,0,1,4.694,9.777l-.515,1.465a7.688,7.688,0,0,1-4.356,4.567h.005a7.675,7.675,0,0,1,4.686,9.782l-.5,1.454a7.618,7.618,0,0,1-5.007,4.794V71.2a7.657,7.657,0,0,1,3.9,9.451l-.053.147a7.587,7.587,0,0,1-3.848,4.32V87.3h53.657V9.461H150.776Zm-7.734,54.964-.651,1.844a3.954,3.954,0,0,0,.171,3.029,3.922,3.922,0,0,0,2.26,2.018l.973.347a4.857,4.857,0,0,0,6.2-2.987l.055-.148a4.782,4.782,0,0,0,.27-1.594,4.883,4.883,0,0,0-3.263-4.59l-.969-.342a3.91,3.91,0,0,0-1.306-.227A3.963,3.963,0,0,0,143.042,75.593Zm.267-16.883-1.11,3.176a4,4,0,0,0-.224,1.317c0,.072,0,.144.006.216a3.974,3.974,0,0,0,2.642,3.519l2.318.811a4.9,4.9,0,0,0,2.253.232,4.835,4.835,0,0,0,3.952-3.213l.5-1.454a4.881,4.881,0,0,0-2.975-6.221l-2.313-.806a3.921,3.921,0,0,0-1.307-.227A3.975,3.975,0,0,0,143.309,58.71Zm63.92-9.5v9.883l.127.063c.65.274.825.079.892,0h0a.688.688,0,0,0,.161-.476.973.973,0,0,0-.01-.135l-1.17-9.345ZM143.487,42.9l-1.11,3.176a3.953,3.953,0,0,0-.223,1.314c0,.08,0,.16.008.24a3.964,3.964,0,0,0,2.639,3.492l2.313.816a4.733,4.733,0,0,0,2.115.247,4.867,4.867,0,0,0,4.085-3.229l.517-1.465a4.878,4.878,0,0,0-2.984-6.211l-1.931-.68h0l-.38-.137a3.963,3.963,0,0,0-5.047,2.434Zm-6.908-21.488-.058.111a5.57,5.57,0,0,0-.613,3.735c.034.185.077.363.129.543a5.565,5.565,0,0,0,2.676,3.35l9.269,5.426V21.43L144.155,19.2a5.487,5.487,0,0,0-2.659-.684A5.61,5.61,0,0,0,136.579,21.414Zm14.2-17.763V6.664h53.657V3.651a.855.855,0,0,0-.854-.853H151.629A.856.856,0,0,0,150.776,3.651Zm75.335,120.78a1.394,1.394,0,0,1-1.175-1.37,1.421,1.421,0,0,1,.018-.231c.288-1.8.535-3.64.733-5.479a1.4,1.4,0,1,1,2.779.3c-.2,1.891-.457,3.782-.753,5.621a1.4,1.4,0,0,1-1.378,1.18A1.076,1.076,0,0,1,226.111,124.431ZM11.644,105.862c0-1.881.048-3.788.145-5.668a1.412,1.412,0,0,1,1.467-1.322,1.4,1.4,0,0,1,1.327,1.393c0,.024,0,.048,0,.072-.094,1.833-.141,3.693-.141,5.526a1.4,1.4,0,1,1-2.8,0Zm44.716-6.816a2.1,2.1,0,1,1,2.1,1.991A2.05,2.05,0,0,1,56.359,99.046Zm-7.825,0a2.1,2.1,0,1,1,2.1,1.991A2.049,2.049,0,0,1,48.534,99.046Zm-8.068,0a2.1,2.1,0,1,1,2.1,1.991A2.049,2.049,0,0,1,40.466,99.046Zm133.911-3a1.4,1.4,0,0,1,0-2.8h5.457a1.4,1.4,0,0,1,0,2.8ZM14.292,89.342a1.4,1.4,0,0,1-1.167-1.381,1.46,1.46,0,0,1,.02-.231,108.439,108.439,0,0,1,2.781-12.222,1.4,1.4,0,0,1,2.684.78A105.883,105.883,0,0,0,15.9,88.194a1.4,1.4,0,0,1-1.377,1.17A1.8,1.8,0,0,1,14.292,89.342Zm29.023-6.385A3.421,3.421,0,0,1,41.3,79.813V65.853a11.728,11.728,0,0,1-7.419-3.735c-1.907-2.058-4.046-5.768-4.036-12.049q0-1.02.081-2.131V23.115A15.669,15.669,0,0,1,45.563,7.454H99.509a15.669,15.669,0,0,1,15.639,15.661V50.26A15.664,15.664,0,0,1,99.509,65.916H66.045L47.008,82.426a3.429,3.429,0,0,1-2.249.848A3.51,3.51,0,0,1,43.315,82.958Zm-10.6-59.842V47.99c0,.037,0,.074,0,.105q-.078,1.043-.077,2.03c0,4.293,1.127,7.752,3.29,10.086a8.972,8.972,0,0,0,6.654,2.908H42.7a1.4,1.4,0,0,1,1.4,1.4V79.813a.653.653,0,0,0,1.086.5l19.43-16.847a1.4,1.4,0,0,1,.915-.342H99.509A12.865,12.865,0,0,0,112.352,50.26V23.115A12.865,12.865,0,0,0,99.509,10.257H45.563A12.865,12.865,0,0,0,32.719,23.115Zm160.066,52.03a1.4,1.4,0,0,1,0-2.8h3.367a1.4,1.4,0,0,1,0,2.8Zm-30.744,0a1.4,1.4,0,0,1,0-2.8h21.881a1.4,1.4,0,0,1,0,2.8ZM192.785,66a1.4,1.4,0,0,1,0-2.8h3.367a1.4,1.4,0,0,1,0,2.8Zm-30.744,0a1.4,1.4,0,0,1,0-2.8h21.881a1.4,1.4,0,0,1,0,2.8ZM20.847,65.526a1.4,1.4,0,0,1-.746-1.833c.73-1.738,1.513-3.477,2.33-5.168a1.4,1.4,0,0,1,2.657.614,1.381,1.381,0,0,1-.14.6c-.8,1.654-1.559,3.345-2.27,5.036a1.393,1.393,0,0,1-1.831.748Zm171.938-8.681a1.4,1.4,0,0,1,0-2.8h3.367a1.4,1.4,0,0,1,0,2.8Zm-30.744,0a1.4,1.4,0,0,1,0-2.8h21.881a1.4,1.4,0,0,1,0,2.8Zm-92.8-4.214a1.4,1.4,0,0,1-1.114-1.372,1.426,1.426,0,0,1,.029-.282l6.3-30.432a1.4,1.4,0,0,1,2.766.287,1.426,1.426,0,0,1-.029.282L70.9,51.546a1.4,1.4,0,0,1-1.366,1.117A1.325,1.325,0,0,1,69.245,52.631ZM84.061,48a1.385,1.385,0,0,1-.323-.886,1.4,1.4,0,0,1,.5-1.084L96.3,35.979,84.241,25.933a1.4,1.4,0,1,1,1.789-2.149L99.376,34.9a1.4,1.4,0,0,1,0,2.149L86.03,48.179a1.4,1.4,0,0,1-.894.321A1.38,1.38,0,0,1,84.061,48Zm-25.677.184L45.037,37.054a1.4,1.4,0,0,1,0-2.149l13.347-11.12a1.4,1.4,0,0,1,1.789,2.149L48.116,35.979,60.173,46.025a1.4,1.4,0,0,1,.5,1.084,1.4,1.4,0,0,1-2.292,1.071Zm134.4-.485a1.4,1.4,0,0,1,0-2.8h3.367a1.4,1.4,0,0,1,0,2.8Zm-30.744,0a1.4,1.4,0,0,1,0-2.8h21.881a1.4,1.4,0,0,1,0,2.8ZM160.4,37.217a1.4,1.4,0,0,1-1.4-1.4V17.115a1.4,1.4,0,0,1,1.4-1.4h35.755a1.4,1.4,0,0,1,1.4,1.4V35.821a1.4,1.4,0,0,1-1.4,1.4Zm1.4-2.8h32.96v-15.9H161.8Z" fill="url(#linear-gradient)"/>
</svg>
