<svg width="300" height="300" viewBox="0 0 3266.667 3266.667" xmlns="http://www.w3.org/2000/svg"><defs><linearGradient x1="0" y1="0" x2="1" y2="0" gradientUnits="userSpaceOnUse" gradientTransform="scale(11895.46 -11895.46) rotate(45 1.984 .16)" spreadMethod="pad" id="b"><stop style="stop-opacity:1;stop-color:#355ce8" offset="0"/><stop style="stop-opacity:1;stop-color:#355ce8" offset="0"/><stop style="stop-opacity:1;stop-color:#92b7f3" offset="1"/></linearGradient><clipPath clipPathUnits="userSpaceOnUse" id="a"><path d="M12860.8 9276.1c0-644.8 363.2-1189.5 793-1189.5 429.9 0 793 544.7 793 1189.5s-363.1 1189.6-793 1189.6c-429.8 0-793-544.8-793-1189.6zm-168.4-1183.5c-232.4 319.4-360.3 739.8-360.3 1183.5 0 443.8 127.9 864.1 360.3 1183.6 250.7 344.8 592.2 534.7 961.4 534.7 369.3 0 710.7-189.9 961.5-534.7 232.3-319.5 360.2-739.8 360.2-1183.6 0-443.7-127.9-864.1-360.2-1183.5-250.8-344.8-592.2-534.7-961.5-534.7-369.2 0-710.7 189.9-961.4 534.7zm-2210.7 126.2c0 583-444.7 1057.3-991.29 1057.3-546.61 0-991.29-474.3-991.29-1057.3 0-583.1 444.68-1057.4 991.29-1057.4 546.59 0 991.29 474.3 991.29 1057.4zm528.7 0c0-874.6-681.9-1586.1-1519.99-1586.1-838.12 0-1519.98 711.5-1519.98 1586.1 0 874.5 681.86 1586 1519.98 1586 838.09 0 1519.99-711.5 1519.99-1586zm-3304.31 4097.3c0-344.8 330.67-590.8 527.79-706.8 384.37-226.1 901.03-350.6 1454.78-350.6 553.74 0 1070.44 124.5 1454.74 350.6 197.2 116 527.8 362 527.8 706.8 0 344.8-330.6 590.8-527.8 706.7-384.3 226.1-901 350.7-1454.74 350.7-553.75 0-1070.41-124.6-1454.78-350.7-197.12-115.9-527.79-361.9-527.79-706.7zm-528.69 0c0 889.4 1103.08 1586 2511.26 1586 1408.14 0 2511.24-696.6 2511.24-1586S11096.8 10730 9688.66 10730c-1408.18 0-2511.26 696.7-2511.26 1586.1zm-1718.23-1982.6c0-2988.1 2430.96-5419 5419.03-5419 2988.1 0 5419.1 2430.9 5419.1 5419s-2431 5419.1-5419.1 5419.1c-2988.07 0-5419.03-2431-5419.03-5419.1zm1213.36-4205.7c-1123.37 1123.4-1742.05 2617-1742.05 4205.7 0 1588.7 618.68 3082.3 1742.05 4205.7 1123.38 1123.4 2616.99 1742 4205.67 1742 1588.7 0 3082.3-618.6 4205.7-1742 1123.4-1123.4 1742-2617 1742-4205.7 0-1588.7-618.6-3082.3-1742-4205.7-1123.4-1123.4-2617-1742-4205.7-1742-1588.68 0-3082.29 618.6-4205.67 1742zm13106.47 6124c338.3 774.3 359.1 1558.3 354.7 2382.3-337-218.2-764.1-328.9-1197.2-302.5-522.9 31.8-990.1 261.5-1281.9 630.1-223.3 282.1-435.7 586.7-523.7 925-1054.6 19.4-2071.7 196.3-2600.3 1105.1-432.6 744.4-393.9 1695.6 82.2 2573-1867.6-157.5-3442.4-1206.3-4273.5-2872.8-65.2-130.7-223.9-183.7-354.57-118.6-130.64 65.1-183.73 223.9-118.58 354.5 995.05 1995.2 2954.45 3186.3 5241.55 3186.3 99.8 0 191.1-56.2 236.1-145.4 44.9-89.1 35.8-195.9-23.6-276.2-603.9-815.9-731.3-1748.9-332.5-2435.1 407.4-700.5 1240.9-844.1 2366.9-844.1 139.4 0 254.8-108.2 263.8-247.2 19.1-293.9 227.9-594.9 450.7-876.3 198.7-251 526.5-407.9 899.5-430.6 407.3-24.7 801.4 109.7 1054.4 359.7 19.8 19.5 38.6 37.5 56.8 54.7 43.4 41.2 74.7 71 103.9 109.6 68.5 90.6 187.2 127.3 294.9 91.2 107.7-36.1 180.3-137 180.3-250.6 0-125.8 1-250.8 2-375.2 7.2-917.1 14.6-1865.4-397.4-2808.6-554.2-1268.6-1546.9-2294.3-2795.3-2888.2-36.6-17.4-75.3-25.7-113.4-25.7-98.8 0-193.6 55.7-238.9 150.8-62.7 131.9-6.6 289.6 125.2 352.3 1133.4 539.2 2034.7 1470.5 2537.9 2622.5z"/></clipPath></defs><g clip-path="url(#a)" transform="matrix(.13333 0 0 -.13333 0 3266.667)"><path d="M12860.8 9276.1c0-644.8 363.2-1189.5 793-1189.5 429.9 0 793 544.7 793 1189.5s-363.1 1189.6-793 1189.6c-429.8 0-793-544.8-793-1189.6zm-168.4-1183.5c-232.4 319.4-360.3 739.8-360.3 1183.5 0 443.8 127.9 864.1 360.3 1183.6 250.7 344.8 592.2 534.7 961.4 534.7 369.3 0 710.7-189.9 961.5-534.7 232.3-319.5 360.2-739.8 360.2-1183.6 0-443.7-127.9-864.1-360.2-1183.5-250.8-344.8-592.2-534.7-961.5-534.7-369.2 0-710.7 189.9-961.4 534.7zm-2210.7 126.2c0 583-444.7 1057.3-991.29 1057.3-546.61 0-991.29-474.3-991.29-1057.3 0-583.1 444.68-1057.4 991.29-1057.4 546.59 0 991.29 474.3 991.29 1057.4zm528.7 0c0-874.6-681.9-1586.1-1519.99-1586.1-838.12 0-1519.98 711.5-1519.98 1586.1 0 874.5 681.86 1586 1519.98 1586 838.09 0 1519.99-711.5 1519.99-1586zm-3304.31 4097.3c0-344.8 330.67-590.8 527.79-706.8 384.37-226.1 901.03-350.6 1454.78-350.6 553.74 0 1070.44 124.5 1454.74 350.6 197.2 116 527.8 362 527.8 706.8 0 344.8-330.6 590.8-527.8 706.7-384.3 226.1-901 350.7-1454.74 350.7-553.75 0-1070.41-124.6-1454.78-350.7-197.12-115.9-527.79-361.9-527.79-706.7zm-528.69 0c0 889.4 1103.08 1586 2511.26 1586 1408.14 0 2511.24-696.6 2511.24-1586S11096.8 10730 9688.66 10730c-1408.18 0-2511.26 696.7-2511.26 1586.1zm-1718.23-1982.6c0-2988.1 2430.96-5419 5419.03-5419 2988.1 0 5419.1 2430.9 5419.1 5419s-2431 5419.1-5419.1 5419.1c-2988.07 0-5419.03-2431-5419.03-5419.1zm1213.36-4205.7c-1123.37 1123.4-1742.05 2617-1742.05 4205.7 0 1588.7 618.68 3082.3 1742.05 4205.7 1123.38 1123.4 2616.99 1742 4205.67 1742 1588.7 0 3082.3-618.6 4205.7-1742 1123.4-1123.4 1742-2617 1742-4205.7 0-1588.7-618.6-3082.3-1742-4205.7-1123.4-1123.4-2617-1742-4205.7-1742-1588.68 0-3082.29 618.6-4205.67 1742zm13106.47 6124c338.3 774.3 359.1 1558.3 354.7 2382.3-337-218.2-764.1-328.9-1197.2-302.5-522.9 31.8-990.1 261.5-1281.9 630.1-223.3 282.1-435.7 586.7-523.7 925-1054.6 19.4-2071.7 196.3-2600.3 1105.1-432.6 744.4-393.9 1695.6 82.2 2573-1867.6-157.5-3442.4-1206.3-4273.5-2872.8-65.2-130.7-223.9-183.7-354.57-118.6-130.64 65.1-183.73 223.9-118.58 354.5 995.05 1995.2 2954.45 3186.3 5241.55 3186.3 99.8 0 191.1-56.2 236.1-145.4 44.9-89.1 35.8-195.9-23.6-276.2-603.9-815.9-731.3-1748.9-332.5-2435.1 407.4-700.5 1240.9-844.1 2366.9-844.1 139.4 0 254.8-108.2 263.8-247.2 19.1-293.9 227.9-594.9 450.7-876.3 198.7-251 526.5-407.9 899.5-430.6 407.3-24.7 801.4 109.7 1054.4 359.7 19.8 19.5 38.6 37.5 56.8 54.7 43.4 41.2 74.7 71 103.9 109.6 68.5 90.6 187.2 127.3 294.9 91.2 107.7-36.1 180.3-137 180.3-250.6 0-125.8 1-250.8 2-375.2 7.2-917.1 14.6-1865.4-397.4-2808.6-554.2-1268.6-1546.9-2294.3-2795.3-2888.2-36.6-17.4-75.3-25.7-113.4-25.7-98.8 0-193.6 55.7-238.9 150.8-62.7 131.9-6.6 289.6 125.2 352.3 1133.4 539.2 2034.7 1470.5 2537.9 2622.5" style="fill:url(#b);fill-opacity:1;fill-rule:nonzero;stroke:none"/></g></svg>